<svg xmlns="http://www.w3.org/2000/svg" width="20" height="20.87" viewBox="0 0 20 20.87">
  <g id="noun_Gift_4163124" transform="translate(0 -0.04)">
    <g id="Layer_2" data-name="Layer 2" transform="translate(0 0.04)">
      <g id="Layer_1" data-name="Layer 1" transform="translate(0 0)">
        <path id="Path_3" data-name="Path 3" d="M12.718,52.494V40.52H6.16V52.025a.47.47,0,0,0,.468.468Z" transform="translate(-4.806 -31.623)" fill="#fefbd6"/>
        <path id="Path_4" data-name="Path 4" d="M0,23.658v2.435a.468.468,0,0,0,.468.466H7.912V23.19H.468A.468.468,0,0,0,0,23.658" transform="translate(0 -18.102)" fill="#fefbd6"/>
        <path id="Path_5" data-name="Path 5" d="M38,35.18h3.378V18.8a.468.468,0,0,0-.468-.468H38.477A.468.468,0,0,0,38,18.8Z" transform="translate(-29.648 -14.31)" fill="#fefbd6"/>
        <path id="Path_6" data-name="Path 6" d="M48.2,3.62a.9.9,0,0,1,.69.325A11.222,11.222,0,0,1,51.5,1.528a1.807,1.807,0,0,1,1.684,3.165h1.778c.029-.057.057-.112.084-.169A3.18,3.18,0,0,0,51.009.251C50.02.623,48.4,2.394,47.35,3.631Z" transform="translate(-36.943 -0.04)" fill="#fefbd6"/>
        <path id="Path_7" data-name="Path 7" d="M8.158,4.71H9.932a1.807,1.807,0,0,1,1.684-3.165,11.44,11.44,0,0,1,2.607,2.418.905.905,0,0,1,.692-.327h.842C14.714,2.4,13.092.633,12.1.272A3.18,3.18,0,0,0,8.075,4.54c.026.057.055.114.084.169" transform="translate(-6.086 -0.061)" fill="#fefbd6"/>
        <path id="Path_8" data-name="Path 8" d="M55.37,26.559h7.354a.468.468,0,0,0,.477-.466V23.658a.468.468,0,0,0-.468-.468H55.37Z" transform="translate(-43.201 -18.102)" fill="#fefbd6"/>
        <path id="Path_9" data-name="Path 9" d="M55.37,52.494h6a.47.47,0,0,0,.468-.468V40.52H55.37Z" transform="translate(-43.201 -31.623)" fill="#fefbd6"/>
      </g>
    </g>
  </g>
</svg>
